<svg xmlns="http://www.w3.org/2000/svg" xmlns:xlink="http://www.w3.org/1999/xlink" fill="none" version="1.1" width="291" height="75" viewBox="0 0 291 75"><defs><radialGradient cx="0" cy="0" r="1" gradientUnits="userSpaceOnUse" id="master_svg0_112_1985" gradientTransform="translate(39.20567939499756 22.118086130190477) rotate(116.51811455822899) scale(41.313474501511166 39.24581484719398)"><stop offset="0%" stop-color="#FFB455" stop-opacity="1"/><stop offset="100%" stop-color="#EB6A38" stop-opacity="1"/></radialGradient><radialGradient cx="0" cy="0" r="1" gradientUnits="userSpaceOnUse" id="master_svg1_112_1986" gradientTransform="translate(41.205924791671805 29.16836461219191) rotate(129.57439602746578) scale(35.20343848713917 35.13145141074443)"><stop offset="59.40080285072327%" stop-color="#CC5934" stop-opacity="0"/><stop offset="100%" stop-color="#CC5934" stop-opacity="1"/></radialGradient><radialGradient cx="0" cy="0" r="1" gradientUnits="userSpaceOnUse" id="master_svg2_112_1987" gradientTransform="translate(13.198217801957753 22.70134043580299) rotate(12.387053142200614) scale(12.247505303241025 41.40322248850749)"><stop offset="0%" stop-color="#D9957B" stop-opacity="1"/><stop offset="100%" stop-color="#FFBC94" stop-opacity="1"/></radialGradient><radialGradient cx="0" cy="0" r="1" gradientUnits="userSpaceOnUse" id="master_svg3_112_1988" gradientTransform="translate(50.17700554115936 36.49319169968851) rotate(140.0562811894143) scale(30.336519726131986 28.51285679633165)"><stop offset="0%" stop-color="#FFEAC1" stop-opacity="1"/><stop offset="100%" stop-color="#DE7C60" stop-opacity="1"/><stop offset="100%" stop-color="#DE7C60" stop-opacity="1"/><stop offset="100%" stop-color="#D4726B" stop-opacity="1"/></radialGradient><radialGradient cx="0" cy="0" r="1" gradientUnits="userSpaceOnUse" id="master_svg4_112_1989" gradientTransform="translate(55.476381028412106 28.28428775592829) rotate(128.85368323439857) scale(17.501172424396728 10.227501053711173)"><stop offset="0%" stop-color="#FFE7C2" stop-opacity="1"/><stop offset="100%" stop-color="#FFE7C2" stop-opacity="0"/></radialGradient><radialGradient cx="0" cy="0" r="1" gradientUnits="userSpaceOnUse" id="master_svg5_112_1990" gradientTransform="translate(29.42128324175087 60.35641670227051) rotate(90.5916850722593) scale(7.934482967229673 14.25779276078515)"><stop offset="0%" stop-color="#C46867" stop-opacity="1"/><stop offset="100%" stop-color="#C46867" stop-opacity="0"/></radialGradient><radialGradient cx="0" cy="0" r="1" gradientUnits="userSpaceOnUse" id="master_svg6_112_1991" gradientTransform="translate(30.703389976407834 35.716044622205686) rotate(48.18038226530511) scale(3.648631418144514 30.56469557707696)"><stop offset="0%" stop-color="#FFBD91" stop-opacity="1"/><stop offset="100%" stop-color="#FFBD91" stop-opacity="0"/></radialGradient><linearGradient x1="0.4657069742679596" y1="0.4063631296157837" x2="0.9652417302131653" y2="0.5811613202095032" id="master_svg7_112_1992"><stop offset="0%" stop-color="#E6AF22" stop-opacity="1"/><stop offset="100%" stop-color="#FFFB4B" stop-opacity="1"/></linearGradient><radialGradient cx="0" cy="0" r="1" gradientUnits="userSpaceOnUse" id="master_svg8_112_1993" gradientTransform="translate(44.687278151512146 19.289646416902542) rotate(131.51498831188857) scale(19.407630339064177 5.463359796920445)"><stop offset="10.148999840021133%" stop-color="#F39D2B" stop-opacity="1"/><stop offset="100%" stop-color="#F39D2B" stop-opacity="0"/></radialGradient><radialGradient cx="0" cy="0" r="1" gradientUnits="userSpaceOnUse" id="master_svg9_112_1994" gradientTransform="translate(39.11574614048004 16.498172730207443) rotate(146.54758006111567) scale(17.87277063477107 9.244831256021657)"><stop offset="0%" stop-color="#F19C20" stop-opacity="1"/><stop offset="100%" stop-color="#F19C20" stop-opacity="0"/></radialGradient><radialGradient cx="0" cy="0" r="1" gradientUnits="userSpaceOnUse" id="master_svga_112_1995" gradientTransform="translate(8.062603175640106 69.28991746902466) rotate(85.92272752058133) scale(11.523474227893393 44.87852774169009)"><stop offset="0%" stop-color="#D08E28" stop-opacity="1"/><stop offset="100%" stop-color="#D08E28" stop-opacity="0"/></radialGradient><radialGradient cx="0" cy="0" r="1" gradientUnits="userSpaceOnUse" id="master_svgb_112_1996" gradientTransform="translate(8.922926634550095 59.027018904685974) rotate(149.84208288160391) scale(5.638229424315447 1.3955266564404252)"><stop offset="0%" stop-color="#E9C441" stop-opacity="1"/><stop offset="100%" stop-color="#E9AF41" stop-opacity="0"/></radialGradient><radialGradient cx="0" cy="0" r="1" gradientUnits="userSpaceOnUse" id="master_svgc_112_1997" gradientTransform="translate(12.642480552196503 49.63899755477905) rotate(124.24642448417032) scale(9.097001959593335 2.3412595631659405)"><stop offset="0%" stop-color="#F1D338" stop-opacity="1"/><stop offset="100%" stop-color="#F1B338" stop-opacity="0"/></radialGradient><radialGradient cx="0" cy="0" r="1" gradientUnits="userSpaceOnUse" id="master_svgd_112_1998" gradientTransform="translate(48.59416651725769 19.252943754196167) rotate(126.93565127020133) scale(15.407406390973875 4.298878280176022)"><stop offset="15.361300110816956%" stop-color="#ECA53B" stop-opacity="1"/><stop offset="100%" stop-color="#ECA53B" stop-opacity="0"/></radialGradient><filter id="master_svge_112_2091" filterUnits="objectBoundingBox" color-interpolation-filters="sRGB" x="-2" y="-2" width="28.53926658630371" height="40.389854431152344"><feFlood flood-opacity="0" result="BackgroundImageFix"/><feBlend mode="normal" in="SourceGraphic" in2="BackgroundImageFix" result="shape"/><feGaussianBlur stdDeviation="0.5" result="effect1_foregroundBlur"/></filter><linearGradient x1="0.6378964185714722" y1="0.6082904934883118" x2="-0.07662919908761978" y2="1.0527549982070923" id="master_svgf_112_1999"><stop offset="0%" stop-color="#FFEF33" stop-opacity="1"/><stop offset="100%" stop-color="#FFEF33" stop-opacity="0"/></linearGradient></defs><g><g><g><ellipse cx="30.999928951263428" cy="37.00025415420532" rx="23.668283462524414" ry="23.716781616210938" fill="url(#master_svg0_112_1985)" fill-opacity="1"/></g><g><ellipse cx="30.999928951263428" cy="37.00025415420532" rx="23.668283462524414" ry="23.716781616210938" fill="url(#master_svg1_112_1986)" fill-opacity="1"/></g><g><path d="M7.403537750244141,35.13438293609619C10.436177750244141,34.01198293609619,15.60755775024414,31.28668293609619,20.32723775024414,26.238982936096193C26.35153775024414,19.79621293609619,28.157537750244142,15.663412936096192,28.81873775024414,13.382782936096191C17.38152775024414,14.429832936096192,8.296974750244141,23.63038293609619,7.403537750244141,35.13438293609619Z" fill-rule="evenodd" fill="url(#master_svg2_112_1987)" fill-opacity="1"/></g><g><path d="M54.256134538269045,32.57227237243652C51.57133453826904,37.35097237243652,47.96833453826904,42.63597237243653,42.97493453826904,48.272072372436526C38.96573453826905,52.79697237243652,33.04053453826904,56.90917237243652,26.865434538269042,60.356372372436525C21.340594538269045,59.381172372436524,16.476454538269042,56.485672372436525,12.984034538269043,52.38237237243652C18.415084538269042,49.169272372436524,24.44673453826904,44.57097237243652,30.99393453826904,37.88017237243652C39.276234538269044,29.415872372436525,43.77543453826904,22.262062372436525,45.44583453826904,18.212072372436523C49.94523453826904,21.690892372436522,53.160234538269044,26.756532372436524,54.256134538269045,32.57227237243652Z" fill-rule="evenodd" fill="url(#master_svg3_112_1988)" fill-opacity="1"/></g><g><path d="M54.256134538269045,32.57227237243652C51.57133453826904,37.35097237243652,47.96833453826904,42.63597237243653,42.97493453826904,48.272072372436526C38.96573453826905,52.79697237243652,33.04053453826904,56.90917237243652,26.865434538269042,60.356372372436525C21.340594538269045,59.381172372436524,16.476454538269042,56.485672372436525,12.984034538269043,52.38237237243652C18.415084538269042,49.169272372436524,24.44673453826904,44.57097237243652,30.99393453826904,37.88017237243652C39.276234538269044,29.415872372436525,43.77543453826904,22.262062372436525,45.44583453826904,18.212072372436523C49.94523453826904,21.690892372436522,53.160234538269044,26.756532372436524,54.256134538269045,32.57227237243652Z" fill-rule="evenodd" fill="url(#master_svg4_112_1989)" fill-opacity="1"/></g><g><path d="M54.256134538269045,32.57227237243652C51.57133453826904,37.35097237243652,47.96833453826904,42.63597237243653,42.97493453826904,48.272072372436526C38.96573453826905,52.79697237243652,33.04053453826904,56.90917237243652,26.865434538269042,60.356372372436525C21.340594538269045,59.381172372436524,16.476454538269042,56.485672372436525,12.984034538269043,52.38237237243652C18.415084538269042,49.169272372436524,24.44673453826904,44.57097237243652,30.99393453826904,37.88017237243652C39.276234538269044,29.415872372436525,43.77543453826904,22.262062372436525,45.44583453826904,18.212072372436523C49.94523453826904,21.690892372436522,53.160234538269044,26.756532372436524,54.256134538269045,32.57227237243652Z" fill-rule="evenodd" fill="url(#master_svg5_112_1990)" fill-opacity="1"/></g><g><path d="M54.256134538269045,32.57227237243652C51.57133453826904,37.35097237243652,47.96833453826904,42.63597237243653,42.97493453826904,48.272072372436526C38.96573453826905,52.79697237243652,33.04053453826904,56.90917237243652,26.865434538269042,60.356372372436525C21.340594538269045,59.381172372436524,16.476454538269042,56.485672372436525,12.984034538269043,52.38237237243652C18.415084538269042,49.169272372436524,24.44673453826904,44.57097237243652,30.99393453826904,37.88017237243652C39.276234538269044,29.415872372436525,43.77543453826904,22.262062372436525,45.44583453826904,18.212072372436523C49.94523453826904,21.690892372436522,53.160234538269044,26.756532372436524,54.256134538269045,32.57227237243652Z" fill-rule="evenodd" fill="url(#master_svg6_112_1991)" fill-opacity="1"/></g><g><path d="M60.4837,7.88908C59.2967,6.50488,57.7021,6.0423239,56.3314,6.00294027C55.0299,5.9655548,53.7339,6.289497,52.5949,6.696645C50.3002,7.5168,47.7195,9.01844,45.2232,10.696110000000001C43.3239,11.9726,41.3627,13.42753,39.4621,14.92165C41.804,15.80717,43.9691,17.0542,45.8894,18.5948C46.9439,17.8086,47.9958,17.0578,49.0205,16.3691C51.3757,14.78611,53.3972,13.6623,54.8851,13.13049C54.9454,13.108889999999999,55.0037,13.08879,55.0595,13.07014C54.9871,13.356639999999999,54.8744,13.718810000000001,54.6993,14.17049C53.9651,16.0631,52.495,18.535600000000002,50.4193,21.4082C46.3029,27.1052,40.325,33.6739,34.926,39.1478C29.6921,44.4546,22.5669,50.7837,16.3202,55.3554C13.1774,57.6553,10.394,59.409,8.26027,60.3885C7.8054,60.5973,7.41169,60.756,7.07648,60.874C7.40419,59.9807,8.02469,58.7898,8.97487,57.2828C10.0043,55.6499,11.2729,53.8707,12.6515,51.9675C11.0935,50.0257,9.83453,47.8327,8.94445,45.4588C8.5664,45.9826,8.18305,46.5107,7.79724,47.0419L7.61051,47.2991C6.07494,49.4141,4.49756,51.5947,3.21175,53.634C1.96079,55.6181,0.788649,57.7675,0.277326,59.8086C-0.24978,61.9131,-0.232659,64.7755,2.20961,66.78139999999999C3.7559,68.0514,5.61336,68.104,6.936,67.924C8.30822,67.7375,9.73679,67.22409999999999,11.0994,66.5988C13.8498,65.33619999999999,17.064,63.2698,20.3409,60.8716C26.9328,56.0469,34.3329,49.4669,39.7746,43.9496C45.2615,38.3864,51.5223,31.5295,55.9407,25.4143C58.1324,22.3811,60.0036,19.351,61.0532,16.6447C61.9842,14.24369,62.8311,10.626909999999999,60.4837,7.88908Z" fill-rule="evenodd" fill="url(#master_svg7_112_1992)" fill-opacity="1"/></g><g><path d="M60.4837,7.88908C59.2967,6.50488,57.7021,6.0423239,56.3314,6.00294027C55.0299,5.9655548,53.7339,6.289497,52.5949,6.696645C50.3002,7.5168,47.7195,9.01844,45.2232,10.696110000000001C43.3239,11.9726,41.3627,13.42753,39.4621,14.92165C41.804,15.80717,43.9691,17.0542,45.8894,18.5948C46.9439,17.8086,47.9958,17.0578,49.0205,16.3691C51.3757,14.78611,53.3972,13.6623,54.8851,13.13049C54.9454,13.108889999999999,55.0037,13.08879,55.0595,13.07014C54.9871,13.356639999999999,54.8744,13.718810000000001,54.6993,14.17049C53.9651,16.0631,52.495,18.535600000000002,50.4193,21.4082C46.3029,27.1052,40.325,33.6739,34.926,39.1478C29.6921,44.4546,22.5669,50.7837,16.3202,55.3554C13.1774,57.6553,10.394,59.409,8.26027,60.3885C7.8054,60.5973,7.41169,60.756,7.07648,60.874C7.40419,59.9807,8.02469,58.7898,8.97487,57.2828C10.0043,55.6499,11.2729,53.8707,12.6515,51.9675C11.0935,50.0257,9.83453,47.8327,8.94445,45.4588C8.5664,45.9826,8.18305,46.5107,7.79724,47.0419L7.61051,47.2991C6.07494,49.4141,4.49756,51.5947,3.21175,53.634C1.96079,55.6181,0.788649,57.7675,0.277326,59.8086C-0.24978,61.9131,-0.232659,64.7755,2.20961,66.78139999999999C3.7559,68.0514,5.61336,68.104,6.936,67.924C8.30822,67.7375,9.73679,67.22409999999999,11.0994,66.5988C13.8498,65.33619999999999,17.064,63.2698,20.3409,60.8716C26.9328,56.0469,34.3329,49.4669,39.7746,43.9496C45.2615,38.3864,51.5223,31.5295,55.9407,25.4143C58.1324,22.3811,60.0036,19.351,61.0532,16.6447C61.9842,14.24369,62.8311,10.626909999999999,60.4837,7.88908Z" fill-rule="evenodd" fill="url(#master_svg8_112_1993)" fill-opacity="1"/></g><g><path d="M60.4837,7.88908C59.2967,6.50488,57.7021,6.0423239,56.3314,6.00294027C55.0299,5.9655548,53.7339,6.289497,52.5949,6.696645C50.3002,7.5168,47.7195,9.01844,45.2232,10.696110000000001C43.3239,11.9726,41.3627,13.42753,39.4621,14.92165C41.804,15.80717,43.9691,17.0542,45.8894,18.5948C46.9439,17.8086,47.9958,17.0578,49.0205,16.3691C51.3757,14.78611,53.3972,13.6623,54.8851,13.13049C54.9454,13.108889999999999,55.0037,13.08879,55.0595,13.07014C54.9871,13.356639999999999,54.8744,13.718810000000001,54.6993,14.17049C53.9651,16.0631,52.495,18.535600000000002,50.4193,21.4082C46.3029,27.1052,40.325,33.6739,34.926,39.1478C29.6921,44.4546,22.5669,50.7837,16.3202,55.3554C13.1774,57.6553,10.394,59.409,8.26027,60.3885C7.8054,60.5973,7.41169,60.756,7.07648,60.874C7.40419,59.9807,8.02469,58.7898,8.97487,57.2828C10.0043,55.6499,11.2729,53.8707,12.6515,51.9675C11.0935,50.0257,9.83453,47.8327,8.94445,45.4588C8.5664,45.9826,8.18305,46.5107,7.79724,47.0419L7.61051,47.2991C6.07494,49.4141,4.49756,51.5947,3.21175,53.634C1.96079,55.6181,0.788649,57.7675,0.277326,59.8086C-0.24978,61.9131,-0.232659,64.7755,2.20961,66.78139999999999C3.7559,68.0514,5.61336,68.104,6.936,67.924C8.30822,67.7375,9.73679,67.22409999999999,11.0994,66.5988C13.8498,65.33619999999999,17.064,63.2698,20.3409,60.8716C26.9328,56.0469,34.3329,49.4669,39.7746,43.9496C45.2615,38.3864,51.5223,31.5295,55.9407,25.4143C58.1324,22.3811,60.0036,19.351,61.0532,16.6447C61.9842,14.24369,62.8311,10.626909999999999,60.4837,7.88908Z" fill-rule="evenodd" fill="url(#master_svg9_112_1994)" fill-opacity="1"/></g><g><path d="M60.4837,7.88908C59.2967,6.50488,57.7021,6.0423239,56.3314,6.00294027C55.0299,5.9655548,53.7339,6.289497,52.5949,6.696645C50.3002,7.5168,47.7195,9.01844,45.2232,10.696110000000001C43.3239,11.9726,41.3627,13.42753,39.4621,14.92165C41.804,15.80717,43.9691,17.0542,45.8894,18.5948C46.9439,17.8086,47.9958,17.0578,49.0205,16.3691C51.3757,14.78611,53.3972,13.6623,54.8851,13.13049C54.9454,13.108889999999999,55.0037,13.08879,55.0595,13.07014C54.9871,13.356639999999999,54.8744,13.718810000000001,54.6993,14.17049C53.9651,16.0631,52.495,18.535600000000002,50.4193,21.4082C46.3029,27.1052,40.325,33.6739,34.926,39.1478C29.6921,44.4546,22.5669,50.7837,16.3202,55.3554C13.1774,57.6553,10.394,59.409,8.26027,60.3885C7.8054,60.5973,7.41169,60.756,7.07648,60.874C7.40419,59.9807,8.02469,58.7898,8.97487,57.2828C10.0043,55.6499,11.2729,53.8707,12.6515,51.9675C11.0935,50.0257,9.83453,47.8327,8.94445,45.4588C8.5664,45.9826,8.18305,46.5107,7.79724,47.0419L7.61051,47.2991C6.07494,49.4141,4.49756,51.5947,3.21175,53.634C1.96079,55.6181,0.788649,57.7675,0.277326,59.8086C-0.24978,61.9131,-0.232659,64.7755,2.20961,66.78139999999999C3.7559,68.0514,5.61336,68.104,6.936,67.924C8.30822,67.7375,9.73679,67.22409999999999,11.0994,66.5988C13.8498,65.33619999999999,17.064,63.2698,20.3409,60.8716C26.9328,56.0469,34.3329,49.4669,39.7746,43.9496C45.2615,38.3864,51.5223,31.5295,55.9407,25.4143C58.1324,22.3811,60.0036,19.351,61.0532,16.6447C61.9842,14.24369,62.8311,10.626909999999999,60.4837,7.88908Z" fill-rule="evenodd" fill="url(#master_svga_112_1995)" fill-opacity="1"/></g><g><path d="M60.4837,7.88908C59.2967,6.50488,57.7021,6.0423239,56.3314,6.00294027C55.0299,5.9655548,53.7339,6.289497,52.5949,6.696645C50.3002,7.5168,47.7195,9.01844,45.2232,10.696110000000001C43.3239,11.9726,41.3627,13.42753,39.4621,14.92165C41.804,15.80717,43.9691,17.0542,45.8894,18.5948C46.9439,17.8086,47.9958,17.0578,49.0205,16.3691C51.3757,14.78611,53.3972,13.6623,54.8851,13.13049C54.9454,13.108889999999999,55.0037,13.08879,55.0595,13.07014C54.9871,13.356639999999999,54.8744,13.718810000000001,54.6993,14.17049C53.9651,16.0631,52.495,18.535600000000002,50.4193,21.4082C46.3029,27.1052,40.325,33.6739,34.926,39.1478C29.6921,44.4546,22.5669,50.7837,16.3202,55.3554C13.1774,57.6553,10.394,59.409,8.26027,60.3885C7.8054,60.5973,7.41169,60.756,7.07648,60.874C7.40419,59.9807,8.02469,58.7898,8.97487,57.2828C10.0043,55.6499,11.2729,53.8707,12.6515,51.9675C11.0935,50.0257,9.83453,47.8327,8.94445,45.4588C8.5664,45.9826,8.18305,46.5107,7.79724,47.0419L7.61051,47.2991C6.07494,49.4141,4.49756,51.5947,3.21175,53.634C1.96079,55.6181,0.788649,57.7675,0.277326,59.8086C-0.24978,61.9131,-0.232659,64.7755,2.20961,66.78139999999999C3.7559,68.0514,5.61336,68.104,6.936,67.924C8.30822,67.7375,9.73679,67.22409999999999,11.0994,66.5988C13.8498,65.33619999999999,17.064,63.2698,20.3409,60.8716C26.9328,56.0469,34.3329,49.4669,39.7746,43.9496C45.2615,38.3864,51.5223,31.5295,55.9407,25.4143C58.1324,22.3811,60.0036,19.351,61.0532,16.6447C61.9842,14.24369,62.8311,10.626909999999999,60.4837,7.88908Z" fill-rule="evenodd" fill="url(#master_svgb_112_1996)" fill-opacity="1"/></g><g><path d="M60.4837,7.88908C59.2967,6.50488,57.7021,6.0423239,56.3314,6.00294027C55.0299,5.9655548,53.7339,6.289497,52.5949,6.696645C50.3002,7.5168,47.7195,9.01844,45.2232,10.696110000000001C43.3239,11.9726,41.3627,13.42753,39.4621,14.92165C41.804,15.80717,43.9691,17.0542,45.8894,18.5948C46.9439,17.8086,47.9958,17.0578,49.0205,16.3691C51.3757,14.78611,53.3972,13.6623,54.8851,13.13049C54.9454,13.108889999999999,55.0037,13.08879,55.0595,13.07014C54.9871,13.356639999999999,54.8744,13.718810000000001,54.6993,14.17049C53.9651,16.0631,52.495,18.535600000000002,50.4193,21.4082C46.3029,27.1052,40.325,33.6739,34.926,39.1478C29.6921,44.4546,22.5669,50.7837,16.3202,55.3554C13.1774,57.6553,10.394,59.409,8.26027,60.3885C7.8054,60.5973,7.41169,60.756,7.07648,60.874C7.40419,59.9807,8.02469,58.7898,8.97487,57.2828C10.0043,55.6499,11.2729,53.8707,12.6515,51.9675C11.0935,50.0257,9.83453,47.8327,8.94445,45.4588C8.5664,45.9826,8.18305,46.5107,7.79724,47.0419L7.61051,47.2991C6.07494,49.4141,4.49756,51.5947,3.21175,53.634C1.96079,55.6181,0.788649,57.7675,0.277326,59.8086C-0.24978,61.9131,-0.232659,64.7755,2.20961,66.78139999999999C3.7559,68.0514,5.61336,68.104,6.936,67.924C8.30822,67.7375,9.73679,67.22409999999999,11.0994,66.5988C13.8498,65.33619999999999,17.064,63.2698,20.3409,60.8716C26.9328,56.0469,34.3329,49.4669,39.7746,43.9496C45.2615,38.3864,51.5223,31.5295,55.9407,25.4143C58.1324,22.3811,60.0036,19.351,61.0532,16.6447C61.9842,14.24369,62.8311,10.626909999999999,60.4837,7.88908Z" fill-rule="evenodd" fill="url(#master_svgc_112_1997)" fill-opacity="1"/></g><g><path d="M60.4837,7.88908C59.2967,6.50488,57.7021,6.0423239,56.3314,6.00294027C55.0299,5.9655548,53.7339,6.289497,52.5949,6.696645C50.3002,7.5168,47.7195,9.01844,45.2232,10.696110000000001C43.3239,11.9726,41.3627,13.42753,39.4621,14.92165C41.804,15.80717,43.9691,17.0542,45.8894,18.5948C46.9439,17.8086,47.9958,17.0578,49.0205,16.3691C51.3757,14.78611,53.3972,13.6623,54.8851,13.13049C54.9454,13.108889999999999,55.0037,13.08879,55.0595,13.07014C54.9871,13.356639999999999,54.8744,13.718810000000001,54.6993,14.17049C53.9651,16.0631,52.495,18.535600000000002,50.4193,21.4082C46.3029,27.1052,40.325,33.6739,34.926,39.1478C29.6921,44.4546,22.5669,50.7837,16.3202,55.3554C13.1774,57.6553,10.394,59.409,8.26027,60.3885C7.8054,60.5973,7.41169,60.756,7.07648,60.874C7.40419,59.9807,8.02469,58.7898,8.97487,57.2828C10.0043,55.6499,11.2729,53.8707,12.6515,51.9675C11.0935,50.0257,9.83453,47.8327,8.94445,45.4588C8.5664,45.9826,8.18305,46.5107,7.79724,47.0419L7.61051,47.2991C6.07494,49.4141,4.49756,51.5947,3.21175,53.634C1.96079,55.6181,0.788649,57.7675,0.277326,59.8086C-0.24978,61.9131,-0.232659,64.7755,2.20961,66.78139999999999C3.7559,68.0514,5.61336,68.104,6.936,67.924C8.30822,67.7375,9.73679,67.22409999999999,11.0994,66.5988C13.8498,65.33619999999999,17.064,63.2698,20.3409,60.8716C26.9328,56.0469,34.3329,49.4669,39.7746,43.9496C45.2615,38.3864,51.5223,31.5295,55.9407,25.4143C58.1324,22.3811,60.0036,19.351,61.0532,16.6447C61.9842,14.24369,62.8311,10.626909999999999,60.4837,7.88908Z" fill-rule="evenodd" fill="url(#master_svgd_112_1998)" fill-opacity="1"/></g><g filter="url(#master_svge_112_2091)"><g><path d="M36.05389404296875,43.386337815666195L36.95032004296875,44.344837815666196C41.27645404296875,40.2833378156662,52.11119404296875,28.7212378156662,58.11429404296875,19.2686378156662C60.620794042968754,15.321497815666199,61.03719404296875,12.342327815666199,60.20209404296875,10.370957815666198C59.35019404296875,8.359338815666199,57.301194042968746,7.6422518156661985,55.542494042968755,8.077117815666199C55.19109404296875,8.164001815666198,54.97639404296875,8.519970815666198,55.063194042968746,8.872155815666199C55.14999404296875,9.2243378156662,55.50519404296875,9.439377815666198,55.85659404296875,9.352497815666199C57.08409404296875,9.048967815666199,58.43069404296875,9.551227815666198,58.99549404296875,10.884197815666198C59.57699404296875,12.2573678156662,59.43129404296875,14.747967815666199,57.00809404296875,18.5633378156662C51.08649404296875,27.8875378156662,40.33755404296875,39.364537815666196,36.05389404296875,43.386337815666195Z" fill="url(#master_svgf_112_1999)" fill-opacity="1"/></g></g></g><g><path d="M87.382,29.348L81.466,29.348L82.278,23.838L88.136,23.838L88.89,18.56L87.498,16.878L97.648,16.878L96.662,23.838L102.462,23.838L101.65,29.348L95.85,29.348L91.732,58.522L83.264,58.522L87.382,29.348ZM103.68,58.522L107.334,54.868L110.06,35.496L101.30199999999999,35.496L102.114,29.754L129.43200000000002,29.754L128.62,35.496L118.644,35.496L115.918,55.042Q115.686,56.55,114.555,57.536Q113.424,58.522,111.97399999999999,58.522L103.68,58.522ZM129.084,17.98L128.272,23.78L104.434,23.78L105.246,17.98L129.084,17.98ZM126.126,38.802L125.72,57.42L119.572,57.42L119.63,38.802L126.126,38.802ZM108.20400000000001,38.802L103.44800000000001,57.42L97.3,57.42L102.056,38.802L108.20400000000001,38.802ZM77.87,56.434L82.568,30.392L86.45400000000001,30.392L81.756,56.434L77.87,56.434ZM94.168,53.128L96.372,30.392L100.2,30.392L98.054,53.128L94.168,53.128ZM171.482,41.006L171.36599999999999,42.108L140.51,42.108L140.626,41.006L131.926,41.006L143.584,28.884L172.062,28.884L180.414,41.006L171.482,41.006ZM176.81799999999998,43.21L171.424,52.606L177.572,52.606L176.876,57.536L130.65,57.536L131.346,52.606L161.506,52.606L166.9,43.21L176.81799999999998,43.21ZM171.308,19.43L183.372,19.43L182.73399999999998,23.896L177.166,23.896L178.906,27.666L170.09,27.666L168.582,24.418L166.784,27.666L156.86599999999999,27.666L161.85399999999998,18.502L160.578,16.878L172.7,16.878L171.308,19.43ZM148.108,19.43L159.128,19.43L158.49,23.838L153.966,23.838L155.764,27.666L146.94799999999998,27.666L145.382,24.418L143.642,27.666L133.724,27.666L138.712,18.502L137.436,16.878L149.558,16.878L148.108,19.43ZM159.476,43.732L159.59199999999998,51.446L149.61599999999999,51.446L149.5,43.732L159.476,43.732ZM146.48399999999998,43.732L147.586,51.446L137.668,51.446L136.566,43.732L146.48399999999998,43.732ZM146.716,37.178L166.726,37.178L163.942,33.234L150.71800000000002,33.234L146.716,37.178ZM191.84,36.192L198.8,36.192L198.046,38.106L205.528,38.106L206.05,34.452L190.332,34.452L192.304,20.184L190.564,17.864L235.398,17.864L233.078,34.452L217.766,34.452L217.244,38.106L232.73,38.106L231.976,43.326L216.49,43.326L216.142,45.82L231.57,45.82L230.874,50.808L215.446,50.808L215.214,52.548L233.252,52.548L232.556,57.478L185.402,57.478L186.098,52.548L203.498,52.548L203.73000000000002,50.808L189.69400000000002,50.808L190.39,45.82L204.426,45.82L204.774,43.326L196.01600000000002,43.326L195.378,45.066L188.186,45.066L191.84,36.192ZM203.034,23.896L223.508,23.896L223.798,22.156L203.324,22.156L203.034,23.896ZM222.696,29.812L222.928,28.13L202.454,28.13L202.22199999999998,29.812L222.696,29.812ZM260.628,58.406L265.21000000000004,53.186L268.632,28.884L257.902,28.884L258.714,23.374L269.38599999999997,23.374L270.024,18.966L268.342,16.82L279.41999999999996,16.82L278.49199999999996,23.374L289.39599999999996,23.374L288.584,28.884L277.738,28.884L274.142,54.752Q273.852,56.434,272.75,57.42Q271.648,58.406,270.14,58.406L260.628,58.406ZM244.504,32.828L245.896,22.968L243.228,22.968L243.924,17.806L257.96000000000004,17.806L257.264,22.968L254.654,22.968L253.262,32.828L256.046,32.828L255.176,38.686L252.45,38.686L250.942,49.532L253.552,49.01L252.798,54.636L238.066,57.478L238.82,51.968L241.952,51.33L243.692,38.686L240.792,38.686L241.662,32.828L244.504,32.828ZM253.958,56.26L258.48199999999997,42.746L265.964,42.746L261.44,56.26L253.958,56.26ZM278.376,56.318L276.346,42.804L283.828,42.804L285.858,56.318L278.376,56.318ZM276.81,39.846L280.058,31.03L287.53999999999996,31.03L284.29200000000003,39.846L276.81,39.846ZM258.88800000000003,39.846L258.076,31.03L265.558,31.03L266.37,39.846L258.88800000000003,39.846ZM280.63800000000003,21.866L280.174,17.69L288.352,17.69L288.81600000000003,21.866L280.63800000000003,21.866Z" fill="#3D3D3D" fill-opacity="1"/></g></g></svg>